<svg width="48" height="33" viewBox="0 0 48 33" fill="none" xmlns="http://www.w3.org/2000/svg">
<path d="M12.8498 32.24C11.6365 32.24 10.6498 31.98 9.88983 31.46C9.12982 30.94 8.55649 30.3733 8.16983 29.76C7.96982 29.9067 7.66982 30.0333 7.26982 30.14C6.88316 30.26 6.47649 30.32 6.04983 30.32C4.82316 30.32 3.79649 30.04 2.96982 29.48C2.14316 28.92 1.52316 28.16 1.10982 27.2C0.696491 26.24 0.489825 25.16 0.489825 23.96V6.64C0.489825 5.44 0.716491 4.36 1.16982 3.4C1.63649 2.44 2.30316 1.68 3.16982 1.12C4.03649 0.559998 5.06316 0.279999 6.24982 0.279999C7.44982 0.279999 8.47649 0.559998 9.32983 1.12C10.1965 1.68 10.8565 2.44 11.3098 3.4C11.7765 4.36 12.0098 5.44 12.0098 6.64V23.96C12.0098 24.7467 11.9032 25.4733 11.6898 26.14C11.4898 26.7933 11.2565 27.28 10.9898 27.6C11.1632 27.88 11.4098 28.1 11.7298 28.26C12.0498 28.42 12.4232 28.52 12.8498 28.56V32.24ZM6.24982 26.12C6.78316 26.12 7.15649 25.9067 7.36983 25.48C7.58316 25.04 7.68982 24.5333 7.68982 23.96V6.64C7.68982 6.09333 7.58316 5.6 7.36983 5.16C7.15649 4.70667 6.78316 4.48 6.24982 4.48C5.72982 4.48 5.35649 4.70667 5.12982 5.16C4.91649 5.6 4.80982 6.09333 4.80982 6.64V23.96C4.80982 24.5333 4.92316 25.04 5.14982 25.48C5.37649 25.9067 5.74316 26.12 6.24982 26.12ZM20.7858 30.32C19.5724 30.32 18.5324 30.04 17.6658 29.48C16.8124 28.92 16.1591 28.16 15.7058 27.2C15.2524 26.24 15.0258 25.16 15.0258 23.96V0.599999H19.3458V23.96C19.3458 24.5333 19.4591 25.04 19.6858 25.48C19.9124 25.9067 20.2791 26.12 20.7858 26.12C21.3191 26.12 21.6924 25.9067 21.9058 25.48C22.1191 25.04 22.2258 24.5333 22.2258 23.96V0.599999H26.5458V23.96C26.5458 25.16 26.3124 26.24 25.8458 27.2C25.3924 28.16 24.7324 28.92 23.8658 29.48C23.0124 30.04 21.9858 30.32 20.7858 30.32ZM29.7523 30V0.599999H34.0723V30H29.7523ZM36.2914 30V25.36L43.0514 4.88H37.2514V0.599999H47.7314V4.88L40.8514 25.72H47.7314V30H36.2914Z" fill="url(#paint0_linear_19_123)"/>
<defs>
<linearGradient id="paint0_linear_19_123" x1="23.7187" y1="-27" x2="23.7187" y2="63" gradientUnits="userSpaceOnUse">
<stop stop-color="#FFF615"/>
<stop offset="0.557292" stop-color="#C705F7" stop-opacity="0.442708"/>
<stop offset="0.744792" stop-color="#5A85F2" stop-opacity="0.447917"/>
<stop offset="0.744892" stop-color="#6577F3" stop-opacity="0.402211"/>
<stop offset="1" stop-color="#C705F7" stop-opacity="0"/>
</linearGradient>
</defs>
</svg>
