<svg width="114" height="78" viewBox="0 0 114 78" fill="none" xmlns="http://www.w3.org/2000/svg">
<path d="M29.9146 77.376C27.0026 77.376 24.6346 76.752 22.8106 75.504C20.9866 74.256 19.6106 72.896 18.6826 71.424C18.2026 71.776 17.4826 72.08 16.5226 72.336C15.5946 72.624 14.6186 72.768 13.5946 72.768C10.6506 72.768 8.18663 72.096 6.20263 70.752C4.21863 69.408 2.73063 67.584 1.73863 65.28C0.746625 62.976 0.250625 60.384 0.250625 57.504V15.936C0.250625 13.056 0.794625 10.464 1.88263 8.16C3.00263 5.856 4.60263 4.032 6.68263 2.68799C8.76263 1.344 11.2266 0.671997 14.0746 0.671997C16.9546 0.671997 19.4186 1.344 21.4666 2.68799C23.5466 4.032 25.1306 5.856 26.2186 8.16C27.3386 10.464 27.8986 13.056 27.8986 15.936V57.504C27.8986 59.392 27.6426 61.136 27.1306 62.736C26.6506 64.304 26.0906 65.472 25.4506 66.24C25.8666 66.912 26.4586 67.44 27.2266 67.824C27.9946 68.208 28.8906 68.448 29.9146 68.544V77.376ZM14.0746 62.688C15.3546 62.688 16.2506 62.176 16.7626 61.152C17.2746 60.096 17.5306 58.88 17.5306 57.504V15.936C17.5306 14.624 17.2746 13.44 16.7626 12.384C16.2506 11.296 15.3546 10.752 14.0746 10.752C12.8266 10.752 11.9306 11.296 11.3866 12.384C10.8746 13.44 10.6186 14.624 10.6186 15.936V57.504C10.6186 58.88 10.8906 60.096 11.4346 61.152C11.9786 62.176 12.8586 62.688 14.0746 62.688ZM48.9609 72.768C46.0489 72.768 43.5529 72.096 41.4729 70.752C39.4249 69.408 37.8569 67.584 36.7689 65.28C35.6809 62.976 35.1369 60.384 35.1369 57.504V1.44H45.5049V57.504C45.5049 58.88 45.7769 60.096 46.3209 61.152C46.8649 62.176 47.7449 62.688 48.9609 62.688C50.2409 62.688 51.1369 62.176 51.6489 61.152C52.1609 60.096 52.4169 58.88 52.4169 57.504V1.44H62.7849V57.504C62.7849 60.384 62.2249 62.976 61.1049 65.28C60.0169 67.584 58.4329 69.408 56.3529 70.752C54.3049 72.096 51.8409 72.768 48.9609 72.768ZM70.4806 72V1.44H80.8486V72H70.4806ZM86.1744 72V60.864L102.398 11.712H88.4784V1.44H113.63V11.712L97.1184 61.728H113.63V72H86.1744Z" fill="url(#paint0_linear_10_4)"/>
<defs>
<linearGradient id="paint0_linear_10_4" x1="56" y1="-21" x2="56" y2="76" gradientUnits="userSpaceOnUse">
<stop stop-color="#C705F7"/>
<stop offset="0.557292" stop-color="#C705F7" stop-opacity="0.442708"/>
<stop offset="0.744792" stop-color="#5A85F2" stop-opacity="0.447917"/>
<stop offset="0.744892" stop-color="#6577F3" stop-opacity="0.402211"/>
<stop offset="1" stop-color="#C705F7" stop-opacity="0"/>
</linearGradient>
</defs>
</svg>
